<svg width="142" height="45" viewBox="0 0 142 45" fill="none" xmlns="http://www.w3.org/2000/svg">
<path d="M13.1104 19.8851C10.9722 21.5644 6.08491 21.9437 3.84487 20.3998C-1.95877 16.391 -1.16968 2.84769 6.05944 0.382825C7.96848 -0.267247 12.2449 -0.18599 13.5939 1.38503C15.1722 3.17273 14.1031 7.01898 11.8122 7.26277C11.2013 7.31696 8.4776 6.6398 7.91762 6.93777C5.80488 7.96704 5.80488 12.4363 7.48489 14.1428C8.19758 14.847 10.6158 14.1157 11.5831 13.899C14.434 13.2218 15.4521 18.0432 13.1104 19.8851ZM32.9199 18.1787C32.7418 21.9437 27.3454 22.2145 26.709 18.5037C26.4545 17.041 26.4291 16.2826 26.4291 14.7928C26.4291 13.4385 25.1054 13.1676 23.96 13.276C23.2727 13.3573 22.7127 13.8177 22.7127 14.8741C22.6618 16.1472 22.6363 16.4722 22.5599 17.8536C22.4072 21.6186 16.9854 21.8895 16.349 18.1787C16.0181 16.3097 16.0436 14.3865 16.0436 12.4634C16.0691 9.64637 16.1708 6.7752 16.5526 3.95822C16.6545 3.14565 16.8581 2.30597 17.2399 1.57463C18.2581 -0.294335 20.8291 -0.375592 22.28 1.00582C22.6872 1.38503 22.8654 2.00801 22.9417 2.57684C23.1454 3.87701 23.0181 5.20425 22.9417 6.50439C22.9163 7.23567 22.6872 8.18373 23.4508 8.59001C24.1636 8.96928 25.4108 8.96928 26.1236 8.59001C26.9127 8.15663 26.709 5.71884 26.9127 4.2833C27.0145 3.47065 27.1927 2.631 27.5999 1.89967C28.5927 0.030701 31.1636 -0.0505563 32.64 1.33085C33.0473 1.71006 33.2 2.33306 33.3017 2.90187C33.5054 4.20201 33.3527 5.52925 33.3017 6.82939C33.1236 10.8382 33.0981 14.197 32.9199 18.1787ZM51.037 17.6911C50.3752 22.35 44.4952 22.3229 44.3425 17.6911C44.3425 17.339 44.4952 16.4722 43.5788 16.4722C42.917 16.4722 42.357 16.391 42.4589 17.339C42.637 19.5059 41.5425 20.9956 39.2006 21.0498C38.3606 21.0498 37.3934 20.6977 36.8334 20.0476C36.197 19.2892 35.9425 18.2058 35.7898 17.2306C35.0007 11.8404 34.1607 3.57903 39.5061 1.11416C41.7716 0.0848773 44.5207 0.111958 46.8116 1.00582C47.0661 1.11416 47.3207 1.2496 47.5752 1.38503C52.4625 4.0937 51.7752 12.4092 51.037 17.6911ZM41.8734 9.94435C41.9243 11.0549 41.7716 12.7884 43.3497 12.7884C43.5788 12.7884 43.8334 12.7342 44.088 12.6801C45.1316 12.5175 44.9534 10.7569 44.9534 9.80895C44.9534 5.58344 41.7206 5.47505 41.8734 9.94435ZM58.1911 20.8873C57.4021 21.2123 56.4348 21.2394 55.5948 20.9686C55.0094 20.7519 54.3984 20.2914 54.1184 19.6955C53.8639 19.0725 53.7112 18.4225 53.6094 17.7453C53.3293 15.9576 53.3039 14.1428 53.3039 12.3279C53.3039 9.97144 53.4311 7.58785 53.8384 5.25836C53.9912 4.3916 54.1948 3.52484 54.6021 2.76644C54.8057 2.30597 55.0857 1.87258 55.4421 1.54754C55.9766 1.0329 56.6639 0.626604 57.3766 0.572427C61.2203 0.247391 62.8494 5.39385 63.613 8.8067C64.0712 10.5402 64.8857 10.4319 64.5039 7.99413C64.1729 5.71884 63.6639 2.631 65.573 1.14125C66.0311 0.816206 66.5912 0.626604 67.1257 0.572427C67.9912 0.464082 68.9584 0.680773 69.6712 1.22251C69.9512 1.46629 70.2312 1.76423 70.3585 2.11636C70.6894 2.90187 70.7657 3.76863 70.8166 4.60829C70.9439 6.88358 70.7911 9.15887 70.5366 11.4341C70.3075 13.3031 70.053 15.1991 69.5439 17.0139C69.2639 18.0432 68.8312 19.0996 68.1439 19.8851C67.533 20.5623 66.6421 21.0227 65.7766 21.0227C65.1657 21.0227 64.5294 20.8061 64.0202 20.4539C63.1802 19.858 62.5184 18.91 62.0348 17.962C61.2457 16.418 60.9402 14.6303 60.482 12.9239C59.8966 10.7028 58.7766 11.1362 59.3366 12.9239C59.9475 14.8199 60.2021 16.9597 59.8457 18.937C59.8202 19.1808 59.7439 19.3975 59.642 19.6142C59.3366 20.1831 58.7766 20.6435 58.1911 20.8873ZM81.7314 20.3727C79.8984 20.9686 77.8621 21.3477 75.9787 20.9686C75.3165 20.8331 74.655 20.5352 74.171 20.0476C73.7129 19.5871 73.433 18.9641 73.2801 18.3412C72.7456 16.2014 72.7204 13.9261 72.7204 11.7321C72.7204 9.75475 72.7456 7.80454 72.8473 5.82723C72.9238 4.77087 73.0255 3.71443 73.2801 2.68517C73.4583 2.00801 73.7641 1.27668 74.2734 0.843295C74.8079 0.409913 75.5711 0.301568 76.2586 0.247391C76.3603 0.247391 76.8948 0.27448 76.9712 0.247391C78.6765 -0.023468 80.433 0.247391 82.113 0.626604C83.208 0.843295 84.3023 1.22251 85.2184 1.8455C86.3639 2.631 87.3059 3.79572 87.9422 5.09587C88.4767 6.12513 88.8078 7.28987 88.9607 8.4817C89.1641 10.1068 88.9859 11.8404 88.4767 13.3843C87.9934 15.0095 87.2042 16.6076 86.0587 17.7994C84.8873 19.0183 83.3097 19.8309 81.7314 20.3727ZM79.0328 12.2196C80.0766 13.5198 82.4693 11.5967 82.7492 9.78185C83.0291 7.99413 82.0365 6.88358 80.4582 6.66689C78.6512 6.39601 78.3966 7.91284 78.4731 9.56516C78.4983 10.161 78.5243 10.7569 78.6765 11.3258C78.753 11.6237 78.8294 11.9759 79.0328 12.2196ZM96.0408 20.5352C94.8693 22.0249 91.8152 21.5915 91.0772 19.8309C90.6949 18.937 90.542 15.0908 90.5167 14.1157C90.4915 11.1633 90.542 3.60613 92.5783 1.60172C95.0735 -0.86315 100.368 0.220311 103.219 2.25179C107.266 5.09587 107.266 11.8404 102.939 14.3324C102.557 14.549 103.346 14.9824 103.626 15.172C104.16 15.5242 104.822 15.768 105.204 16.2555C105.56 16.6889 105.637 17.339 105.662 17.8807C105.713 18.9641 105.026 20.6435 104.085 21.0498C104.033 21.0498 104.008 21.0769 103.957 21.0769C103.83 21.131 103.702 21.1852 103.575 21.2123C100.928 21.8895 98.0007 19.4517 96.3459 17.1222C96.4988 18.2599 96.7275 19.6684 96.0408 20.5352ZM96.3207 9.15887C96.4224 10.1339 97.4402 10.1881 98.1276 10.1881C98.6369 10.1881 99.1462 10.161 99.6042 9.94435C101.589 9.02339 98.6621 6.85649 97.262 7.12737C96.4224 7.28987 96.2442 8.45461 96.3207 9.15887Z" fill="#150D69"/>
<path d="M122.924 17.0426C122.267 21.6183 116.423 21.5916 116.271 17.0426C116.271 16.6968 116.423 15.8454 115.513 15.8454C114.855 15.8454 114.298 15.7657 114.399 16.6968C114.577 18.825 113.489 20.2881 111.161 20.3413C110.327 20.3413 109.366 19.9955 108.809 19.357C108.176 18.6122 107.923 17.5481 107.772 16.5903C106.988 11.2964 106.153 3.18265 111.465 0.761816C113.716 -0.24908 116.448 -0.222483 118.725 0.655406C118.978 0.761816 119.231 0.89483 119.484 1.02784C124.341 3.68813 123.658 11.8551 122.924 17.0426ZM113.817 9.43425C113.868 10.525 113.716 12.2275 115.285 12.2275C115.513 12.2275 115.766 12.1743 116.018 12.1211C117.055 11.9615 116.878 10.2323 116.878 9.30127C116.878 5.15125 113.666 5.0448 113.817 9.43425ZM140.785 17.0426C140.128 21.6183 134.284 21.5916 134.132 17.0426C134.132 16.6968 134.284 15.8454 133.373 15.8454C132.715 15.8454 132.159 15.7657 132.26 16.6968C132.437 18.825 131.35 20.2881 129.022 20.3413C128.188 20.3413 127.226 19.9955 126.669 19.357C126.037 18.6122 125.784 17.5481 125.633 16.5903C124.849 11.2964 124.013 3.18265 129.326 0.761816C131.577 -0.24908 134.309 -0.222483 136.586 0.655406C136.839 0.761816 137.092 0.89483 137.345 1.02784C142.202 3.68813 141.519 11.8551 140.785 17.0426ZM131.678 9.43425C131.729 10.525 131.577 12.2275 133.146 12.2275C133.373 12.2275 133.627 12.1743 133.879 12.1211C134.916 11.9615 134.739 10.2323 134.739 9.30127C134.739 5.15125 131.527 5.0448 131.678 9.43425Z" fill="#00A6FF"/>
<path d="M13.0289 41.8866C12.4841 45.6587 7.64405 45.6368 7.51839 41.8866C7.51839 41.6014 7.64404 40.8996 6.88982 40.8996C6.34505 40.8996 5.88407 40.8338 5.96786 41.6014C6.11452 43.356 5.2136 44.5621 3.28598 44.606C2.59455 44.606 1.79836 44.3209 1.33741 43.7946C0.813598 43.1805 0.604075 42.3032 0.478362 41.5137C-0.17116 37.1494 -0.862586 30.4603 3.53741 28.4646C5.40216 27.6311 7.66505 27.6531 9.55076 28.3768C9.76028 28.4646 9.9698 28.5742 10.1793 28.6839C14.2021 30.877 13.6364 37.6099 13.0289 41.8866ZM5.48595 35.6142C5.52788 36.5133 5.40216 37.9169 6.70123 37.9169C6.88982 37.9169 7.09934 37.8731 7.30887 37.8292C8.16789 37.6976 8.02123 36.2721 8.02123 35.5045C8.02123 32.0832 5.3603 31.9955 5.48595 35.6142ZM22.3956 44.0577C20.8871 44.5402 19.2109 44.8473 17.6605 44.5402C17.1157 44.4306 16.5709 44.1893 16.1728 43.7946C15.7957 43.4218 15.5652 42.9173 15.4395 42.4129C14.9995 40.6803 14.9785 38.8381 14.9785 37.0617C14.9785 35.4607 14.9995 33.8816 15.0833 32.2806C15.1461 31.4252 15.23 30.57 15.4395 29.7365C15.5862 29.1883 15.8376 28.5961 16.2566 28.2452C16.6967 27.8943 17.3252 27.8066 17.8909 27.7627C17.9747 27.7627 18.4147 27.7846 18.4776 27.7627C19.8814 27.5434 21.3271 27.7627 22.71 28.0697C23.6109 28.2452 24.5119 28.5523 25.2662 29.0567C26.209 29.6927 26.9842 30.6357 27.5081 31.6885C27.948 32.5218 28.2204 33.4649 28.3462 34.4298C28.5137 35.7458 28.3671 37.1494 27.948 38.3995C27.5499 39.7153 26.9004 41.0093 25.9576 41.9743C24.9938 42.9611 23.6947 43.6191 22.3956 44.0577ZM20.1748 37.4564C21.0338 38.5091 23.0033 36.952 23.2338 35.4826C23.4643 34.0351 22.6471 33.1359 21.348 32.9604C19.8604 32.7411 19.6509 33.9693 19.7138 35.3071C19.7347 35.7896 19.7557 36.2721 19.8814 36.7327C19.9442 36.9739 20.0071 37.259 20.1748 37.4564ZM40.0197 34.8465C44.9016 36.6669 43.3093 44.9131 36.9188 44.8253C34.9911 44.8034 30.5283 44.6499 29.8788 42.8954C29.3969 41.5795 29.774 39.7372 31.0311 39.2328C32.875 38.4653 34.6559 39.2109 36.5416 39.8689C37.5054 40.1979 38.0293 39.2548 37.1912 38.6626C36.6464 38.2898 34.3626 38.2021 33.7131 38.0485C29.334 37.0397 27.9721 32.3683 31.094 29.2541C33.4407 26.9294 38.553 26.6881 41.4235 28.3987C43.2045 29.4514 42.8692 32.3464 40.8578 33.114C39.475 33.6404 38.8883 33.3552 37.4426 32.9604C36.6883 32.7411 35.6826 32.1709 35.0749 32.6753C34.5721 33.092 35.2845 33.7062 35.955 33.8597C37.6521 34.2763 38.3854 34.2325 40.0197 34.8465Z" fill="#00A6FF"/>
<path d="M73.8625 43.1925C73.1086 44.0332 70.6091 43.9889 69.5577 43.9889C66.8994 43.9889 65.1538 43.4137 64.4198 40.781C63.6659 38.104 63.7452 31.2457 65.0744 28.8563C66.5622 26.2015 70.8472 26.2678 73.4856 27.1528C75.7868 27.9051 75.39 31.2457 73.4856 32.1749C72.6326 32.5952 69.6569 31.29 69.1213 32.1527C68.6452 32.8607 68.4468 34.1882 69.1213 34.6527C70.1727 35.3607 72.3945 33.8342 73.069 34.9846C73.6641 36.0465 73.6244 38.1483 72.3747 38.3474C71.6804 38.458 69.3792 38.2147 69.0618 38.9448C68.7841 39.5642 69.8355 39.4757 70.4504 39.4536C71.2836 39.4094 73.3467 39.0775 73.8823 39.7854C74.5568 40.6483 74.537 42.4182 73.8625 43.1925ZM84.5422 43.7677C82.6774 44.5421 80.4358 44.3208 78.9678 42.6172C78.1743 41.6881 77.6188 40.4492 77.2419 39.2323C76.3492 36.4226 75.7739 33.1262 75.8929 30.1616C76.012 26.8431 80.3365 26.29 80.892 29.1218C81.2689 30.9802 81.0507 32.3298 81.3284 34.2324C82.0823 39.2987 83.213 37.9492 83.7884 33.635C84.0065 31.9537 83.8677 30.8917 84.2247 29.2325C84.8199 26.3342 88.9461 26.5113 89.1048 29.874C89.204 31.8209 88.9263 33.7457 88.6089 35.6704C88.3113 37.3297 87.9344 39.0111 87.2798 40.5376C86.9227 41.3784 86.4268 42.1527 85.8316 42.7943C85.4547 43.1925 85.0182 43.5686 84.5422 43.7677ZM100.171 43.1925C99.4168 44.0332 96.9176 43.9889 95.8659 43.9889C93.2078 43.9889 91.4621 43.4137 90.7282 40.781C89.9742 38.104 90.0535 31.2457 91.3823 28.8563C92.8703 26.2015 97.1557 26.2678 99.7935 27.1528C102.095 27.9051 101.698 31.2457 99.7935 32.1749C98.9406 32.5952 95.9653 31.29 95.4296 32.1527C94.9535 32.8607 94.7553 34.1882 95.4296 34.6527C96.4807 35.3607 98.7025 33.8342 99.3776 34.9846C99.9721 36.0465 99.9328 38.1483 98.6829 38.3474C97.9883 38.458 95.6873 38.2147 95.3701 38.9448C95.0921 39.5642 96.1439 39.4757 96.7587 39.4536C97.592 39.4094 99.6549 39.0775 100.191 39.7854C100.865 40.6483 100.845 42.4182 100.171 43.1925ZM106.248 43.7013C105.633 43.9668 104.879 43.9889 104.225 43.7677C103.768 43.5907 103.292 43.2147 103.074 42.7279C102.876 42.219 102.757 41.6881 102.677 41.135C102.459 39.6748 102.439 38.1925 102.439 36.7102C102.439 34.7855 102.538 32.8386 102.856 30.936C102.975 30.228 103.134 29.52 103.451 28.9006C103.61 28.5245 103.828 28.1705 104.106 27.9051C104.522 27.4847 105.058 27.1528 105.613 27.1086C108.609 26.8431 109.878 31.0466 110.473 33.8342C110.831 35.2501 111.465 35.1616 111.168 33.1705C110.91 31.3121 110.513 28.79 112.001 27.5732C112.358 27.3076 112.795 27.1528 113.211 27.1086C113.886 27.02 114.639 27.1971 115.195 27.6395C115.413 27.8387 115.631 28.082 115.73 28.3696C115.989 29.0112 116.048 29.7192 116.087 30.405C116.187 32.2634 116.068 34.1218 115.87 35.9801C115.691 37.5067 115.492 39.0554 115.096 40.5376C114.877 41.3784 114.54 42.2411 114.005 42.8828C113.529 43.4359 112.834 43.812 112.16 43.812C111.683 43.812 111.188 43.6349 110.791 43.3473C110.136 42.8607 109.621 42.0863 109.244 41.312C108.628 40.051 108.39 38.5908 108.033 37.197C107.577 35.3828 106.704 35.7368 107.141 37.197C107.617 38.7456 107.815 40.4934 107.537 42.1085C107.518 42.3075 107.458 42.4846 107.378 42.6615C107.141 43.1261 106.704 43.5022 106.248 43.7013ZM122.769 43.9226C122.153 44.0553 121.459 43.9889 120.884 43.6792C120.626 43.5465 120.388 43.3031 120.229 43.0376C119.397 41.5553 119.634 39.6527 119.634 37.9049C119.634 36.8651 119.634 35.8032 119.654 34.7634C119.693 33.7014 119.793 32.1528 118.781 32.2412C118.206 32.2855 117.512 32.0422 117.154 31.5112C116.559 30.6262 116.758 29.0112 117.413 28.1705C117.809 27.6838 118.464 27.5289 119.059 27.4404C120.586 27.1971 122.134 27.2635 123.681 27.374C124.277 27.3962 124.872 27.4626 125.467 27.5953C125.923 27.7059 126.379 27.8608 126.776 28.1484C127.014 28.3254 127.232 28.5466 127.351 28.8342C127.629 29.4315 127.589 30.228 127.371 30.8474C127.192 31.3563 126.835 31.9315 126.359 32.0643C126.18 32.1307 125.982 32.197 125.784 32.1527C124.435 31.9315 124.554 32.9713 124.554 34.2103C124.534 35.0288 124.494 39.8075 124.494 40.6261C124.494 41.3562 124.475 42.1306 124.197 42.7722C123.939 43.3695 123.344 43.812 122.769 43.9226ZM138.161 33.989C142.783 35.8253 141.275 44.1438 135.225 44.0553C133.4 44.0332 129.175 43.8784 128.56 42.1085C128.103 40.781 128.46 38.9226 129.651 38.4138C131.397 37.6395 133.083 38.3916 134.868 39.0554C135.781 39.3873 136.276 38.4359 135.483 37.8385C134.967 37.4624 132.805 37.3739 132.19 37.2191C128.044 36.2014 126.755 31.489 129.71 28.3475C131.932 26.0024 136.772 25.759 139.491 27.4847C141.177 28.5466 140.859 31.4669 138.955 32.2412C137.645 32.7723 137.09 32.4846 135.721 32.0864C135.007 31.8651 134.055 31.29 133.48 31.7988C133.004 32.2191 133.678 32.8386 134.313 32.9935C135.919 33.4138 136.614 33.3696 138.161 33.989Z" fill="#150D69"/>
<path d="M56.7396 44.4053C56.4616 44.4939 56.1444 44.4939 55.8664 44.3832C55.6682 44.2948 55.232 43.8965 55.073 43.6531C54.5969 43.8744 54.0815 44.0292 53.5654 44.1399C52.1769 44.4053 50.7092 44.3832 49.3598 43.9629C48.6456 43.7416 47.9909 43.3434 47.416 42.8125C46.6226 42.1045 46.0071 41.0204 45.8285 39.8921C45.6703 38.7196 45.9476 37.3921 46.5428 36.3966C46.8208 35.9099 47.1975 35.4674 47.654 35.2241C47.6736 35.2241 47.6933 35.2019 47.7136 35.2019C47.654 35.1577 47.6141 35.0913 47.5546 35.0249C47.0784 34.494 46.5827 33.8745 46.444 33.1223C46.3047 32.4807 46.325 31.7949 46.4237 31.1311C46.6422 29.5161 47.654 28.1223 49.0027 27.5693C50.3913 27.0161 51.9584 27.0604 53.3869 27.4144C54.0017 27.5693 54.5969 27.9232 55.0338 28.432C55.3314 28.786 55.6087 29.1843 55.7677 29.6268C55.8664 29.8922 55.9063 30.1798 55.9259 30.4674C55.9259 31.4851 55.5492 32.5028 55.0534 33.3435C54.7558 33.8745 54.3987 34.4054 53.9625 34.8037C54.1802 35.0913 54.3791 35.401 54.5773 35.7107C54.6172 35.755 54.6564 35.8214 54.6963 35.8656C54.9939 36.2639 55.2915 36.6621 55.5688 37.0382C55.5891 37.0824 55.6087 37.1266 55.6283 37.1488C55.7081 36.9054 55.7474 36.64 55.7873 36.3744C55.9063 35.578 55.9063 34.7594 56.1248 33.9851C56.2438 33.5647 56.4616 33.1444 56.7991 32.9231C57.2557 32.6134 57.8705 32.6355 58.3858 32.7683C58.7829 32.8789 59.1995 33.1002 59.418 33.4542C59.7947 34.0293 59.9733 34.7816 60.0125 35.4895C60.0328 36.286 59.9138 37.1045 59.7149 37.8567C59.3382 39.2063 58.7038 40.4453 57.8502 41.4851C57.9692 41.6841 58.1086 41.9275 58.1478 42.0381C58.2276 42.2151 58.3263 42.4142 58.3466 42.6133C58.4062 43.1001 58.1282 43.631 57.771 43.9408C57.4734 44.1841 57.1163 44.3169 56.7396 44.4053ZM51.0663 32.3701C51.2245 32.6134 51.4227 32.8347 51.6013 33.0559C51.8597 32.8126 52.0977 32.5028 52.2364 32.171C52.4745 31.5515 51.9584 30.9763 51.3632 30.9099C50.4508 30.7993 50.7288 31.8612 51.0663 32.3701ZM50.0145 38.9851C50.4116 39.6709 51.4031 39.8257 52.0774 39.516C52.1173 39.4939 52.2168 39.4497 52.2168 39.4276C51.8001 38.9187 51.4227 38.3435 50.9073 37.9453C50.7484 37.8125 50.5306 37.6798 50.352 37.7461C50.233 37.7903 50.074 38.078 50.0145 38.1886C49.9151 38.432 49.8955 38.7638 50.0145 38.9851Z" fill="#150D69"/>
</svg>
